<?xml version="1.0" encoding="UTF-8"?>
<svg version="1.1" viewBox="0 0 192 192" xmlns="http://www.w3.org/2000/svg" xmlns:cc="http://creativecommons.org/ns#" xmlns:dc="http://purl.org/dc/elements/1.1/" xmlns:rdf="http://www.w3.org/1999/02/22-rdf-syntax-ns#">
<metadata>
<rdf:RDF>
<cc:Work rdf:about="">
<dc:format>image/svg+xml</dc:format>
<dc:type rdf:resource="http://purl.org/dc/dcmitype/StillImage"/>
<dc:title/>
</cc:Work>
</rdf:RDF>
</metadata>
<g transform="translate(0 -860.36)" fill="none" stroke="#000" stroke-linecap="round">
<path transform="matrix(-.7424 .66996 -.66996 -.7424 0 0)" d="m604.28-757.46a55.212 55.212 0 0 1 -53.509 55.186 55.212 55.212 0 0 1 -56.81 -51.782 55.212 55.212 0 0 1 50.005 -58.381" stroke-linejoin="round" stroke-width="10"/>
<rect x="81.115" y="1011.5" width="38.431" height="28.863" ry="6.2385e-6" stroke-linejoin="round" stroke-width="10"/>
<path d="m58.842 967.15c9.8307 12.612 22.415 22.118 22.298 43.026" stroke-width="10"/>
<path d="m141.16 967.15c-9.8307 12.612-21.684 22.217-21.567 43.126" stroke-width="10"/>
<path transform="matrix(.9935 .11387 -.11387 .9935 0 0)" d="m170.23 909.41a17.873 25.122 0 0 1 16.22 -25.344" stroke-linejoin="round" stroke-width="10.479"/>
</g>
</svg>
